<svg xmlns:xlink="http://www.w3.org/1999/xlink" viewBox="0 0 1280 720" xmlns="http://www.w3.org/2000/svg" >
<rect id="bg" x="0" y="0" width="1280" height="720" fill="#d9d9d9" />
<image id="bg" x="0" y="0" width="1280" height="720" xlink:href="http://dl.dropbox.com/u/66181996/bg.png"/> 

<g transform="translate(5,100) scale(1.2 1.2)">

<g id="otfonts" opacity="0">
<path d="m344.2249,73.8352-18.779,8.5793 8.5793,18.7789 10.1997-27.3582z" />
<path d="m324.5078,83.9837-10.1997,27.3582 18.779-8.5793-8.5793-18.7789z" />
<path d="m302.0447,93.1259-18.779,8.5793 8.5793,18.7619 10.1996-27.3411z" />
<path d="m303.4092,93.6375-10.1996,27.3412 18.7789-8.5793-8.5793-18.7619z" />
<path d="m280.9461,102.7626-18.7789,8.5793 8.5793,18.7789 10.1996-27.3582z" />
<path d="m332.7801,104.5706-18.7789,8.5793 8.5793,18.779 10.1996-27.3582z" />
<path d="m334.1446,105.0823-10.1996,27.3582 18.779-8.5793-8.5793-18.7789z" />
<path d="m259.8476,112.3994-18.7619,8.5793 8.5793,18.7789 10.1826-27.3583z" />
<path d="m261.2291,112.9111-10.1996,27.3582 18.7789-8.5793-8.5793-18.7789z" />
<path d="m313.046,114.719-10.1997,27.3583 18.779-8.5793-8.5793-18.779z" />
<path d="m363.4984,116.0324-18.7619,8.5793 8.5793,18.7619 10.1826-27.3412z" />
<path d="m364.8799,116.5441-10.1996,27.3412 18.7789-8.5793-8.5793-18.7619z" />
<path d="m238.766,122.0362-18.7789,8.5793 8.5793,18.7789 10.1996-27.3582z" />
<path d="m240.1305,122.5479-10.1996,27.3582 18.779-8.5793-8.5793-18.7789z" />
<path d="m219.032,132.1846-10.1826,27.3582 18.7619-8.5793-8.5793-18.7789z" />
<path d="m269.5014,133.498-18.779,8.5793 8.5793,18.7619 10.1996-27.3412z" />
<path d="m321.3183,135.3059-18.7789,8.5793 8.5793,18.7789 10.1996-27.3582z" />
<path d="m249.7673,143.6464-10.1996,27.3412 18.7789-8.5793-8.5793-18.7619z" />
<path d="m301.6012,145.4544-10.1996,27.3582 18.779-8.5793-8.5793-18.7789z" />
<path d="m227.3042,152.7715-18.7619,8.5793 8.5793,18.7789 10.1826-27.3582z" />
<path d="m279.1382,154.5795-18.779,8.5793 8.5793,18.7789 10.1997-27.3582z" />
<path d="m258.0396,164.2163-18.779,8.5793 8.5793,18.7789 10.1996-27.3582z" />
<path d="m259.4041,164.7279-10.1826,27.3582 18.7619-8.5793-8.5793-18.7789z" />
<path d="m309.8735,166.0413-18.7789,8.5793 8.5793,18.7789 10.1996-27.3582z" />
<path d="m236.941,173.8701-18.7619,8.5793 8.5793,18.7619 10.1826-27.3412z" />
<path d="m238.3226,174.3647-10.1996,27.3582 18.7789-8.5793-8.5793-18.7789z" />
<path d="m290.1395,176.1897-10.1996,27.3582 18.779-8.5793-8.5793-18.7789z" />
<path d="m269.0409,185.8265-10.1826,27.3582 18.7619-8.5793-8.5793-18.7789z" />
<path d="m298.4117,196.7767-18.7789,8.5793 8.5793,18.7619 10.1996-27.3412z" />
<path d="m277.3132,206.4134-18.7619,8.5793 8.5793,18.7619 10.1826-27.3412z" />
<path d="m278.6947,206.9252-10.1996,27.3412 18.7789-8.5793-8.5793-18.7619z" />
<animate attributeName="opacity" dur="0.6s" to="1" begin="4s" fill="freeze" />
<animate attributeName="fill" dur="0.5s" to="black" begin="5s" fill="freeze" />
<animate attributeName="fill" dur="3s" to="#66ccff" begin="5.5s" fill="freeze" />
<animate attributeName="fill" dur="2s" to="#19ff00" begin="11.5s" fill="freeze" />
<animate attributeName="fill" dur="2s" to="#ffff33" begin="13.5s" fill="freeze" />
<animate attributeName="fill" dur="2s" to="#ff6600" begin="15.5s" fill="freeze" />
<animate attributeName="fill" dur="2s" to="#ff0000" begin="17.5s" fill="freeze" />
<animate attributeName="fill" dur="2s" to="#ffff33" begin="19.5s" fill="freeze" />
<animate attributeName="fill" dur="2s" to="#00ff66" begin="21.5s" fill="freeze" />
<animate attributeName="fill" dur="2s" to="#fff" begin="23.5s" fill="freeze" />
<animate attributeName="opacity" dur="1s" to="0" begin="23s" fill="freeze" />
</g>

<g id="ot" transform="translate(360,250)" >

	<g id="ot1" transform="translate(-232,-446)" >
	<path d="m-64.2939-201.4888c-2.8049,0-5.588.1022-8.3405.307l-2.3026,1.0575 8.5792,18.7788 7.4536-20.0068c-1.7873-.0857-3.5813-.1364-5.3897-.1364z" />
	<path d="m20.9526-39.9673-18.7617,8.5792 8.5793,18.7788 10.1825-27.358z" />
	<path d="m-123.5128-23.7981-7.914,21.269c1.3978,1.0661 2.8321,2.0872 4.2811,3.0872l12.2122-5.5774-8.5792-18.7788z" />
	<path d="m-88.7013-168.3317-18.7788,8.5792 8.5792,18.7788 10.1996-27.358z" />
	<path d="m-162.0596-108.1748-10.1996,27.358 18.7788-8.5792-8.5792-18.7788z" />
	<path d="m-31.3074,10.5529-1.9103,5.1339c1.2493-.3644 2.4877-.753 3.7183-1.1598l-1.808-3.9741z" />
	<path d="m16.3133-164.1871-10.1995,27.358 18.7788-8.5963-8.5793-18.7617z" />
	<path d="m-24.9625-194.2912-9.2956,24.9019 18.7788-8.5792-7.01-15.3505c-.8186-.3338-1.6449-.6576-2.4732-.9722z" />
	<path d="m-11.5905.4045-18.7788,8.5792 2.3026,5.0486c4.6556-1.6107 9.1748-3.5231 13.5255-5.7138l2.9507-7.914z" />
	<path d="m-77.2737-200.7213c-5.636.6581-11.1483,1.7351-16.4932,3.2066l-1.9445,5.2192 18.4377-8.4257z" />
	<animateTransform id="transformItem" attributeName="transform" type="translate" from="-232 -446" to="0 0" dur="5s" begin="0s" fill="freeze" calcMode="spline" keySplines="1 0 0 1" />
	</g>

	<g id="ot2" transform="translate(399,409)" >
	<path d="m-62.0425-.8918-7.7776,20.8596c1.8323.0901 3.6715.1364 5.5262.1364 2.1427,0 4.2663-.0676 6.3789-.1876l4.4517-2.0297-8.5792-18.7788z" />
	<path d="m-49.6086-200.5167 4.3493,9.5344 3.0871-8.2893c-2.4492-.4964-4.9315-.9132-7.4365-1.2451z" />
	<path d="m-154.2309-35.2598-2.2514,6.0379c3.074,4.6006 6.473,8.9683 10.1825,13.0479l.6481-.307-8.5792-18.7788z" />
	<path d="m-57.3692-201.2671-7.607,20.4332 18.7617-8.5792-5.168-11.3253c-1.9812-.2301-3.975-.4047-5.9867-.5288z" />
	<path d="m22.317-39.4557-10.1825,27.358 3.0189-1.3815c4.4815-4.611 8.5819-9.6081 12.2122-14.9412l-5.0486-11.0353z" />
	<path d="m-155.6125-35.7545-3.8888,1.7738c.6546,1.0967 1.3216,2.1689 2.0127,3.2407l1.8761-5.0145z" />
	<path d="m-6.1496-155.0621-18.7788,8.5793 8.5792,18.7788 10.1996-27.3581z" />
	<path d="m-28.8172-195.6898-15.3847,7.0271 8.5793,18.7617 9.2956-24.919c-.8253-.3011-1.6558-.588-2.4901-.8698z" />
	<path d="m-100.0265-195.6045c-4.8936,1.6659-9.6149,3.6822-14.1737,5.9867l-2.6096,6.9759 18.7788-8.5793-1.9955-4.3834z" />
	<path d="m-119.4364-179.7764-18.7788,8.5793 8.5793,18.7617 10.1996-27.341z" />
	<path d="m-20.4256-192.4491 5.9014,12.9115 3.1725-8.511c-2.9441-1.6046-5.9758-3.063-9.0739-4.4005z" />
	<path d="m-98.3379-189.4131-18.7788,8.5792 8.5792,18.7617 10.1996-27.3409z" />
	<animateTransform id="transformItem" attributeName="transform" type="translate" from="399 409" to="0 0" dur="5s" begin="0s" fill="freeze" calcMode="spline" keySplines="1 0 0 1" />
	</g>

	<g id="ot3" transform="translate(582,479)" >
	<path d="m-96.9735-188.9185-10.1996,27.358 18.7788-8.5793-8.5792-18.7788z" />
	<path d="m-116.1275-188.6286c-1.2241.6493-2.4367,1.3194-3.6329,2.0127l1.5862,3.4624 2.0467-5.4751z" />
	<path d="m-10.0725-187.3152-3.0872,8.2893 9.5514-4.3664c-2.1028-1.3793-4.2652-2.6861-6.4642-3.9229z" />
	<path d="m-45.157-187.0935-10.1825,27.358 18.7617-8.5963-8.5793-18.7617z" />
	<path d="m-121.0738-185.8314c-5.897,3.5271-11.4415,7.584-16.5615,12.1099l-.2729.7163 18.7788-8.5792-1.9444-4.247z" />
	<path d="m-163.4412-108.6865-10.8818,4.9804c-.5001,4.2712-.7675,8.6083-.7675,13.0138 0,2.2116.0598,4.4042.1876,6.5837l1.2792,2.7801 10.1825-27.358z" />
	<path d="m-111.6077-106.8615-18.7788,8.5792 8.5793,18.7788 10.1995-27.358z" />
	<path d="m-173.5214-77.4397-.58,1.5692c.8918,6.6666 2.3779,13.1562 4.4005,19.3928l4.7586-2.1832-8.5792-18.7788z" />
	<path d="m-40.7224-198.9645-3.1724,8.4939 12.9456-5.9184c-3.1945-1.0068-6.461-1.8577-9.7732-2.5754z" />
	<path d="m-75.8751-198.5552-10.1996,27.358 18.7788-8.5793-8.5793-18.7788z" />
	<path d="m-129.5165-148.5466-10.1996,27.358 18.7788-8.5792-8.5792-18.7788z" />
	<path d="m-83.141,8.745-3.3941,9.125c2.6934.549 5.4262.9978 8.1869,1.3474l-4.7928-10.4725z" />
	<animateTransform id="transformItem" attributeName="transform" type="translate" from="582 479" to="0 0" dur="5s" begin="0s" fill="freeze" calcMode="spline" keySplines="1 0 0 1" />
	</g>

	<g id="ot4" transform="translate(559,809)" >
	<path d="m-118.0719-179.2647-10.1825,27.3409 18.7617-8.5792-8.5792-18.7617z" />
	<path d="m34.2223-122.519-18.7788,8.5792 8.5792,18.7788 10.1996-27.358z" />
	<path d="m-67.6029-177.9685-18.7788,8.5792 8.5793,18.7788 10.1995-27.358z" />
	<path d="m-63.407-1.4034-18.7788,8.5792 5.5944,12.2463c1.7406.1923 3.4893.3498 5.2533.4605l7.9311-21.286z" />
	<path d="m3.9476-177.9685-7.4706,20.0409 18.7788-8.5792-1.1087-2.422c-3.2088-3.2171-6.6171-6.2346-10.1996-9.0397z" />
	<path d="m-6.5931-102.7339-10.1996,27.358 18.7788-8.5792-8.5792-18.7788z" />
	<path d="m-66.2384-177.4568-10.1995,27.358 18.7788-8.5793-8.5793-18.7788z" />
	<path d="m-71.6792-21.9902-10.1996,27.358 18.7788-8.5792-8.5792-18.7788z" />
	<path d="m-48.3294-135.7886-18.7788,8.5792 8.5792,18.7788 10.1996-27.358z" />
	<path d="m-102.4144-33.4348-10.1996,27.358 18.7788-8.5963-8.5793-18.7617z" />
	<path d="m-50.5979-31.6269-10.1825,27.358 18.7617-8.5792-8.5792-18.7788z" />
	<path d="m-130.881-149.0413-18.7788,8.5792 8.5792,18.7618 10.1996-27.341z" />
	<path d="m-77.7001-146.7216-10.1825,27.341 18.7617-8.5792-8.5793-18.7617z" />
	<animateTransform id="transformItem" attributeName="transform" type="translate" from="559 809" to="0 0" dur="5s" begin="0s" fill="freeze" calcMode="spline" keySplines="1 0 0 1" />
	</g>

	<g id="ot5" transform="translate(495,990)" >
	<path d="m24.5855-143.6004-18.7788,8.5793 8.5793,18.7617 10.1996-27.341z" />
	<path d="m-142.3427-118.3232-18.7788,8.5792 8.5792,18.7788 10.1996-27.358z" />
	<path d="m25.95-143.1057-10.1996,27.358 18.7788-8.5792-8.5792-18.7788z" />
	<path d="m-151.9795-139.4045-14.907,6.8054c-.7542,1.8442-1.4589,3.7191-2.115,5.6115l6.8224,14.9241 10.1996-27.3409z" />
	<path d="m-150.615-138.8929-10.1996,27.341 18.7788-8.5792-8.5792-18.7618z" />
	<path d="m-32.6719,10.0583-18.7788,8.5792 .3241.6822c5.5247-.6546 10.9244-1.7015 16.1692-3.1383l2.2855-6.1231z" />
	<path d="m40.8912-125.572-4.3493,1.9956 8.5792,18.7788 .3582-.9551c-.9279-6.8238-2.4766-13.4493-4.5881-19.8192z" />
	<path d="m-60.2346-52.7253-10.1825,27.358 18.7617-8.5792-8.5793-18.7788z" />
	<path d="m-73.0437-22.5019-18.7788,8.5792 8.5793,18.7788 10.1996-27.358z" />
	<path d="m-16.2298-123.8153-10.1995,27.341 18.7788-8.5792-8.5793-18.7617z" />
	<path d="m35.5868-122.0073-10.1825,27.358 18.7617-8.5792-8.5792-18.7788z" />
	<path d="m-29.056-93.5918-18.7788,8.5792 8.5963,18.7617 10.1825-27.341z" />
	<path d="m-142.7863-65.9779-10.1995,27.341 18.7788-8.5792-8.5793-18.7617z" />
	<path d="m-89.1447-115.9865-10.1996,27.341 18.7788-8.5792-8.5792-18.7617z" />
	<path d="m-37.3282-114.1785-10.1825,27.358 18.7617-8.5792-8.5793-18.7788z" />
	<animateTransform id="transformItem" attributeName="transform" type="translate" from="495 990" to="0 0" dur="5s" begin="0s" fill="freeze" calcMode="spline" keySplines="1 0 0 1" />
	</g>

	<g id="ot6" transform="translate(559,539)" >
	<path d="m14.5054-112.3706-10.1996,27.358 18.7788-8.5792-8.5792-18.7788z" />
	<path d="m17.3537-165.5857 8.4939,18.5912 1.9785-5.2874c-3.1487-4.6998-6.6608-9.1501-10.4725-13.3038z" />
	<path d="m14.9488-164.6988-18.7788,8.5793 8.5793,18.7788 10.1995-27.358z" />
	<path d="m-14.4218-175.6488-10.1825,27.358 18.7617-8.5792-8.5792-18.7788z" />
	<path d="m-140.5349-170.1397-1.8079.8358c-4.8843,4.8495-9.3351,10.1426-13.2526,15.8281l4.878,10.6942 10.1825-27.358z" />
	<path d="m9.5079-9.2322-18.7788,8.5792 2.2174,4.8439c5.6516-3.4174 10.9807-7.3266 15.9133-11.6664l.6481-1.7568z" />
	<path d="m-153.7874-87.588-18.7788,8.5792 8.5792,18.7788 10.1996-27.358z" />
	<path d="m-169.7008-124.8898c-2.0247,6.2446-3.5096,12.7343-4.4005,19.4099l10.9841-5.0145-6.5836-14.3954z" />
	<path d="m-27.6915-93.0801-10.1825,27.341 18.7617-8.5792-8.5793-18.7617z" />
	<path d="m-87.3368-167.8201-10.1996,27.358 18.7788-8.5792-8.5793-18.7788z" />
	<path d="m22.7776-91.7839-18.7788,8.5792 8.5792,18.7788 10.1996-27.358z" />
	<path d="m12.0322-10.392-.2047.1023 .0338.0682c.0582-.0551.1125-.1154.1706-.1706z" />
	<path d="m12.6804-60.537-10.1825,27.341 18.7617-8.5792-8.5793-18.7617z" />
	<path d="m-156.6017-151.992c-3.6292,5.4535-6.7846,11.2536-9.415,17.329l14.3442-6.5495-4.9292-10.7795z" />
	<path d="m-103.7789-33.9465-18.7788,8.5792 8.5792,18.7788 10.1996-27.358z" />
	<path d="m-59.7911-105.0535-18.7617,8.5792 8.5792,18.7788 10.1825-27.358z" />
	<path d="m-84.5055,8.2333-14.1054,6.4472c3.4678,1.1284 7.0174,2.0963 10.6259,2.8825l3.4794-9.3297z" />
	<animateTransform id="transformItem" attributeName="transform" type="translate" from="559 539" to="0 0" dur="5s" begin="0s" fill="freeze" calcMode="spline" keySplines="1 0 0 1" />
	</g>

	<g id="ot7" transform="translate(639,809)">
	<path d="m43.859-101.4206-18.7617,8.5792 8.5793,18.7788 10.1825-27.358z" />
	<path d="m-131.3416-96.7131-10.1825,27.358 18.7788-8.5792-8.5963-18.7788z" />
	<path d="m-29.4994-41.2636-10.1996,27.358 18.7788-8.5792-8.5792-18.7788z" />
	<path d="m-40.5006-62.8737-18.7788,8.5792 8.5793,18.7788 10.1996-27.358z" />
	<path d="m1.2357-29.8189-10.1995,27.358 18.7788-8.5792-8.5793-18.7788z" />
	<path d="m-18.0377-71.9987-10.1996,27.358 18.7788-8.5792-8.5792-18.7788z" />
	<path d="m24.1421-91.2722-10.1996,27.358 18.7788-8.5792-8.5793-18.7788z" />
	<path d="m-10.226.9162-2.3879,6.4131c1.4316-.7564 2.8363-1.5543 4.2299-2.3708l-1.8421-4.0423z" />
	<path d="m-48.7729-83.4434-10.1995,27.341 18.7788-8.5792-8.5793-18.7617z" />
	<path d="m31.3056-146.6875-4.4005,2.0126 8.5792,18.7788 2.6437-7.0953c-1.9608-4.7424-4.249-9.3122-6.8225-13.6961z" />
	<path d="m-.1288-30.3136-18.7788,8.5792 8.5793,18.7617 10.1995-27.341z" />
	<path d="m3.0437-81.6355-10.1996,27.358 18.7788-8.5792-8.5792-18.7788z" />
	<animateTransform id="transformItem" attributeName="transform" type="translate" from="639 809" to="0 0" dur="5s" begin="0s" fill="freeze" calcMode="spline" keySplines="1 0 0 1" />
	</g>

	<g id="ot8" transform="translate(659,709)" >
	<path d="m45.6328-76.7404-10.8989,4.9804 6.6349,14.5148c1.9831-6.2716 3.422-12.7962 4.264-19.4952z" />
	<path d="m-71.2358-74.3184-18.7788,8.5792 8.5792,18.7788 10.1996-27.358z" />
	<path d="m-69.4278-126.1519-18.7617,8.5963 8.5792,18.7617 10.1825-27.358z" />
	<path d="m32.4143-70.6854-18.7788,8.5792 8.5793,18.7617 10.1995-27.341z" />
	<path d="m33.7788-70.1908-10.1995,27.358 15.0946-6.8907c.7054-1.7715 1.3804-3.5576 1.9955-5.3727l-6.8907-15.0947z" />
	<path d="m1.6792-82.1471-18.7788,8.5792 8.5792,18.7788 10.1996-27.358z" />
	<path d="m-21.2272-20.6769-18.7788,8.5792 8.5792,18.7617 10.1996-27.341z" />
	<path d="m-144.1507-66.4896-18.7788,8.5792 8.5793,18.7617 10.1995-27.341z" />
	<path d="m-92.7777-12.3535-9.6026,25.7377 1.6545.597 16.5274-7.5559-8.5793-18.7788z" />
	<path d="m45.2234-100.9089-10.1825,27.341 10.7795-4.9292c.4389-4.007.6822-8.0713.6822-12.1951 0-2.7127-.0983-5.4037-.29-8.0675l-.9893-2.1491z" />
	<path d="m37.8382-47.6767-14.566,6.6519 5.0828,11.1206c3.6791-5.5955 6.8525-11.5324 9.4832-17.7725z" />
	<path d="m-17.5943-124.3269-18.7788,8.5792 8.5793,18.7788 10.1995-27.358z" />
	<path d="m-39.1362-62.362-10.1996,27.358 18.7788-8.5792-8.5792-18.7788z" />
	<path d="m11.3159-61.0487-18.7788,8.5792 8.5792,18.7788 10.1996-27.358z" />
	<path d="m-165.2491-56.8529-3.9911,1.825c.5106,1.5033 1.0818,2.9781 1.6545,4.4516l2.3367-6.2767z" />
	<path d="m-163.8847-56.3412-2.8995,7.7946c1.8818,4.5717 4.0637,8.995 6.5154,13.2356l4.9634-2.2685-8.5793-18.7617z" />
	<animateTransform id="transformItem" attributeName="transform" type="translate" from="659 709" to="0 0" dur="5s" begin="0s" fill="freeze" calcMode="spline" keySplines="1 0 0 1" />
	</g>

	<g id="ot9" transform="translate(659,989)" >
	<path d="m-113.4156-55.045-18.7788,8.5792 8.5792,18.7788 10.1996-27.358z" />
	<path d="m-112.0511-54.5333-10.1996,27.358 18.7788-8.5792-8.5792-18.7788z" />
	<path d="m-115.2406-3.2114-10.4383,4.7757c2.292,1.5282 4.6532,2.9576 7.0612,4.3152l3.3771-9.0909z" />
        <path d="m38.9298-130.9789-2.0809,5.5944 3.5648-1.6203c-.4631-1.335-.9718-2.6628-1.4839-3.9741z" />
	<path d="m-68.0633-125.6403-10.1825,27.358 18.7617-8.5792-8.5792-18.7788z" />
        <path d="m-19.4193-72.5104-18.7617,8.5792 8.5792,18.7788 10.1825-27.358z" />
	<path d="m-139.1533-169.628-10.1996,27.3409 18.7788-8.5792-8.5792-18.7617z" />
	<path d="m-7.9576-103.2456-18.7788,8.5963 8.5793,18.7617 10.1996-27.358z" />
	<path d="m-124.8773-24.3098-18.7788,8.5792 1.9785,4.3152c2.872,2.804 5.8777,5.4671 9.0397,7.9482l7.7606-20.8426z" />
	<path d="m-77.2566-199.0669-18.7617,8.5793 8.5792,18.7788 10.1825-27.358z" />
	<path d="m-108.4352-158.1833-10.1825,27.358 18.7617-8.5792-8.5792-18.7788z" />
	<path d="m-9.7825-51.412-18.7617,8.5792 8.5792,18.7788 10.1825-27.358z" />
	<path d="m-134.514-45.4082-18.7788,8.5792 8.5793,18.7788 10.1996-27.358z" />
	<path d="m-133.1495-44.8966-10.1996,27.358 18.7788-8.5792-8.5792-18.7788z" />
	<animateTransform id="transformItem" attributeName="transform" type="translate" from="659 989" to="0 0" dur="5s" begin="0s" fill="freeze" calcMode="spline" keySplines="1 0 0 1" />
	</g>

	<g id="ot10" transform="translate(-269,-489)">
	<path d="m-30.8639-41.7753-18.7788,8.5792 8.5792,18.7788 10.1996-27.358z" />
	<path d="m-8.401-50.9003-10.1996,27.358 18.7788-8.5792-8.5793-18.7788z" />
	<path d="m13.1238-112.8823-18.7617,8.5792 8.5792,18.7788 10.1825-27.358z" />
	<path d="m-109.7997-158.695-18.7617,8.5793 8.5792,18.7788 10.1825-27.358z" />
	<path d="m-152.4229-87.0764-10.1996,27.358 18.7788-8.5792-8.5793-18.7788z" />
	<path d="m-94.1422-12.8481-18.7788,8.5792 7.5559,16.5103c.5387.2152 1.0775.4242 1.6203.6311l9.6026-25.7206z" />
	<path d="m-92.3342-64.6817-18.7617,8.5792 8.5792,18.7788 10.1825-27.358z" />
	<animateTransform id="transformItem" attributeName="transform" type="translate" from="-269 -489" to="0 0" dur="5s" begin="0s" fill="freeze" calcMode="spline" keySplines="1 0 0 1" />
	</g>	       
	<g id="ot11" transform="translate(559,939)" >
	<path d="m-42.3256-11.0401-18.7617,8.5792 8.5792,18.7788 10.1825-27.358z" />
	<path d="m-40.9441-10.5285-10.1996,27.341 18.7788-8.5792-8.5793-18.7617z" />
	<path d="m-36.8847-166.5067-18.7617,8.5792 8.5792,18.7617 10.1825-27.3409z" />
	<path d="m-95.5067-197.0202c-1.0266.3009-2.056.6085-3.0701.9381l1.5009,3.2918 1.5692-4.2299z" />
	<path d="m-51.9624-32.1386-18.7788,8.5792 8.5963,18.7788 10.1825-27.358z" />
	<path d="m-79.508-94.9051-10.1996,27.358 18.7788-8.5792-8.5792-18.7788z" />
	<path d="m-19.8627-20.1652-10.1825,27.341 18.7617-8.5792-8.5793-18.7617z" />
	<path d="m-2.1244-182.4031-11.3423,5.1851 8.5792,18.7788 7.6241-20.4673c-1.5874-1.208-3.208-2.3739-4.861-3.4965z" />
	<path d="m-46.5215-187.6052-18.7617,8.5793 8.5793,18.7788 10.1825-27.358z" />
	<path d="m-113.8761-2.6997-3.4624,9.2956c3.2156,1.7572 6.5107,3.3722 9.9096,4.8098l-6.4472-14.1054z" />
	<path d="m28.8155-150.781-1.6033,4.2981 3.326-1.518c-.5662-.9348-1.13-1.8637-1.7227-2.7802z" />
	<path d="m-4.7851-154.5504-10.1825,27.358 18.7617-8.5792-8.5793-18.7788z" />
	<animateTransform id="transformItem" attributeName="transform" type="translate" from="559 939" to="0 0" dur="5s" begin="0s" fill="freeze" calcMode="spline" keySplines="1 0 0 1" />
	</g>
</g>
</g>

<!--OpenTaipeiTextlogo-->
<g id="ot text" transform="translate(-300,-90) scale(3)" opacity="0" >
<path d="m285.3598,97.5833 1.2497,33.6125 34.1679.6729-3.9519-33.5912-31.4657-.6943zm7.8824,6.7396 17.7088.3738 1.8798,20.347-18.3603-.5554-1.2283-20.1654z" fill-rule="evenodd" stroke="#000" stroke-width=".8"/>
<path d="m321.4182,110.9236 2.5314,21.2655 6.6542.1495-1.1963-9.5166 10.3284.4379-1.6983-11.8237-16.6194-.5127zm6.7717,3.1081 6.7503.4272 .5875,5.2763-6.5901-.2136-.7477-5.4899z" fill-rule="evenodd" stroke="#000" stroke-width=".8"/>
<path d="m341.1585,111.489 3.6282,21.0096 13.0313.2471-.7245-3.8668-8.2424-.2122-.7125-3.2871 7.0611-.1398-.992-4.6552-7.2069-.1832-.6605-3.7885 7.9398-.0699-.8028-4.8853-12.3189-.1688v.0001z" fill-rule="evenodd" stroke="#000" stroke-width=".8"/>
<path d="m357.4271,111.5504 4.7251,21.4315 5.9485.0844-3.9729-15.7349 6.2463.2037 3.9175,15.7217 5.1252.0915-5.5134-21.2917-16.4763-.5063v-1e-05 1e-05z" fill-rule="evenodd" stroke="#000" stroke-width=".8"/>
<path d="m373.3725,97.1331 9.4826,36.2083 20.5468.3375-2.2951-8.9224-12.3743-.1133-7.3262-27.3908-8.0337-.1193v-3.7e-05z" fill-rule="evenodd" stroke="#000" stroke-width=".8"/>
<path d="m401.0971,113.6152 5.9599,20.4217 4.3044.0962-2.5634-8.4806 6.3765.0427 3.0761,8.5019 4.1121.0748-7.1668-20.4324-14.0987-.2243zm5.2336,3.1188 6.291.1709 1.8371,5.6395-6.6007-.1709-1.5274-5.6395z" fill-rule="evenodd" stroke="#000" stroke-width=".8"/>
<path d="m418.7632,113.9143 7.263,20.4217 14.4298.3311-3.4285-10.6274-8.9398-.0962-3.9199-10.0293h-5.4045zm10.2216,13.0733 6.0667.0962 1.1322,3.9199-5.9599-.1816-1.239-3.8344z" fill-rule="evenodd" stroke="#000" stroke-width=".8"/>
<path d="m332.1311,136.0236 3.4606,29.0091 6.793-.1068-1.3992-12.0266 9.5914.2457 2.4139,11.0333 6.3978.267-6.9853-28.1012-20.2722-.3204zm7.1775,4.4005 8.6194.3311 1.7944,8.0213-9.2389-.2457-1.1749-8.1067z" fill-rule="evenodd" stroke="#000" stroke-width=".8"/>
<path d="m358.6321,136.9004 4.7659,26.6365 7.3322.1567-5.0945-26.494-7.0036-.2992z" fill-rule="evenodd" stroke="#000" stroke-width=".8"/>
<path d="m370.2296,136.8673 4.3578,26.7234 8.2349.3311-1.1108-9.9545 13.052-.2136-.6515-16.1494-23.8823-.737zm9.6234,4.6675 8.5019.3204 .5981,6.0026-8.2776-.4379-.8224-5.8851z" fill-rule="evenodd" stroke="#000" stroke-width=".8"/>
<path d="m399.4232,166.0137 19.1503.5636-1.4582-6.2882-11.0154-.0967-1.0242-5.0381 8.0686.1117-1.0093-6.6086-7.8171-.368-1.0833-5.6815 9.6458.3842-.8467-5.4601-16.0095-.4815 3.3991,28.9632z" fill-rule="evenodd" stroke="#000" stroke-width=".8"/>
<path d="m414.2937,137.6615 5.1394,28.4687 7.5481.0927-5.0945-27.9872-7.5931-.5743v6e-05z" fill-rule="evenodd" stroke="#000" stroke-width=".8"/>
<path d="m296.895,136.1835 .5944,7.8115 14.0098.4245 1.2736,22.8402 8.7455-.2547-1.868-22.6703 10.6983.3396-1.1887-8.3209-32.2649-.1698z" fill-rule="evenodd" stroke="#000" stroke-width=".8"/>
<animate attributeName="opacity" dur="8s" to="1" begin="6s" fill="freeze" />
<animate attributeName="fill" dur="0.5s" to="black" begin="5s" fill="freeze" />
<animate attributeName="fill" dur="3s" to="#66ccff" begin="5.5s" fill="freeze" />
<animate attributeName="fill" dur="2s" to="#19ff00" begin="11.5s" fill="freeze" />
<animate attributeName="fill" dur="2s" to="#ffff33" begin="13.5s" fill="freeze" />
<animate attributeName="fill" dur="2s" to="#ff6600" begin="15.5s" fill="freeze" />
<animate attributeName="fill" dur="2s" to="#ff0000" begin="17.5s" fill="freeze" />
<animate attributeName="fill" dur="2s" to="#ffff33" begin="19.5s" fill="freeze" />
<animate attributeName="fill" dur="2s" to="#00ff66" begin="21.5s" fill="freeze" />
<animate attributeName="fill" dur="2s" to="#48d1cc" begin="23.5s" fill="freeze" />
<animate attributeName="opacity" dur="1s" to="0.7" begin="23s" fill="freeze" />
</g>

<!--Floss+ArtTextlogo-->
<g id="floss+art" transform="translate(-350,-30) scale(3 3)" opacity="0" fill="#fff">
<path d="m255.5431,182.261h-.8522v-6.6983h3.4774v.7514h-2.6253v2.3641h2.4512v.7514h-2.4512v2.8314" />
<path d="m260.0285,182.261h-.8338v-7.1289h.8338v7.1289" />
<path d="m265.7326,179.7366c0,.4184-.052.7911-.1558,1.1179-.1008.3238-.2474.5971-.4398.8201s-.42.3879-.6918.504-.5773.1741-.9163.1741c-.3146,0-.6048-.0581-.8705-.1741s-.4963-.2841-.6918-.504c-.1924-.223-.3436-.4963-.4536-.8201-.1069-.3268-.1604-.6995-.1604-1.1179s.0503-.7835.1512-1.1042 .2505-.5956.4398-.8155 .42-.391.6918-.504c.2749-.1161.5819-.1741.9209-.1741 .3146,0 .6048.058.8705.1741 .2657.1129.4948.281.6873.504 .1955.2199.3467.4918.4536.8155s.1649.6888.1649,1.1042m-3.5187,0c0,.6384.1038,1.1194.3115,1.4432s.5513.4811 1.0217.4811 .8079-.1603 1.0125-.4811c.2077-.3238.3115-.8048.3116-1.4432s-.1054-1.1148-.3161-1.4295c-.2077-.3176-.5467-.4765-1.0171-.4765s-.8094.1588-1.0171.4765c-.2046.3146-.307.7911-.307,1.4295" />
<path d="m270.0668,180.8819c0,.2444-.0443.4582-.1329.6414s-.2169.3375-.3849.4627c-.165.1222-.365.2138-.6002.2749s-.4994.0917-.7926.0917c-.3329,0-.6185-.0275-.8567-.0825-.2383-.052-.4475-.1298-.6277-.2336v-.7606c.0947.0488.2001.0978.3161.1466s.2382.087.3665.1237 .2596.0672.394.0917c.1374.0214.2734.0321.4078.0321 .1985,0 .3665-.0168.504-.0505s.2535-.0809.339-.142 .1527-.1405.1924-.2291 .0596-.1924.0596-.3024c0-.0947-.0153-.1802-.0458-.2566s-.087-.1512-.1695-.2245c-.0794-.0764-.1894-.1527-.3299-.2291s-.3207-.1619-.5406-.2566-.4184-.1878-.5956-.2795c-.1741-.0917-.3222-.1939-.4444-.307s-.2169-.2428-.2841-.3894c-.0641-.1497-.0962-.3268-.0962-.5315 0-.2138.0412-.4032.1237-.5681 .0855-.168.2046-.3085.3574-.4215s.336-.1985.5498-.2566 .452-.087.7147-.087c.2963,0 .5666.0321.8109.0962 .2474.0641.4811.1481.701.252l-.2886.6735c-.1985-.0885-.4032-.1649-.6139-.2291-.2077-.0672-.42-.1008-.6368-.1008-.3116,0-.5422.052-.6918.1558s-.2245.2459-.2245.4352c-1e-05,.1069.0168.2001.0503.2795 .0367.0794.0978.1543.1833.2245s.2001.142.3436.2153 .3222.1497.5361.2382c.2199.0917.4154.1833.5864.2749s.3222.1955.4444.3115c.1222.113.2153.2428.2795.3894s.0962.3222.0962.5269" />
<path d="m274.3002,180.8819c0,.2444-.0443.4582-.1329.6414s-.2169.3375-.3849.4627c-.165.1222-.365.2138-.6002.2749s-.4994.0917-.7926.0917c-.3329,0-.6185-.0275-.8568-.0825-.2382-.052-.4475-.1298-.6277-.2336v-.7606c.0947.0488.2001.0978.3161.1466s.2382.087.3665.1237 .2596.0672.394.0917c.1374.0214.2734.0321.4078.0321 .1985,0 .3665-.0168.504-.0505s.2535-.0809.339-.142 .1527-.1405.1924-.2291 .0596-.1924.0596-.3024c0-.0947-.0153-.1802-.0458-.2566s-.087-.1512-.1695-.2245c-.0794-.0764-.1894-.1527-.3299-.2291s-.3207-.1619-.5406-.2566-.4184-.1878-.5956-.2795c-.1741-.0917-.3222-.1939-.4444-.307s-.2169-.2428-.2841-.3894c-.0641-.1497-.0962-.3268-.0962-.5315 0-.2138.0412-.4032.1237-.5681 .0855-.168.2046-.3085.3574-.4215s.336-.1985.5498-.2566 .452-.087.7147-.087c.2963,0 .5666.0321.8109.0962 .2474.0641.4811.1481.701.252l-.2886.6735c-.1985-.0885-.4032-.1649-.6139-.2291-.2077-.0672-.42-.1008-.6368-.1008-.3115,0-.5422.052-.6918.1558s-.2245.2459-.2245.4352c0,.1069.0168.2001.0503.2795 .0367.0794.0978.1543.1833.2245s.2001.142.3436.2153 .3222.1497.5361.2382c.2199.0917.4154.1833.5864.2749s.3222.1955.4444.3115c.1222.113.2153.2428.2795.3894s.0962.3222.0962.5269" />
<path d="m279.4041,179.2967h-1.7731v-.6872h1.7731v-1.7822h.6872v1.7822h1.7731v.6872h-1.7731v1.7639h-.6872v-1.7639" />
<path d="m289.6027,182.261-.733-2.0755h-2.497l-.7422,2.0755h-.8613l2.4603-6.7258h.7789l2.4649,6.7258h-.8705m-1.0034-2.8314-.6781-1.9426c-.0183-.055-.0412-.1222-.0687-.2016-.0244-.0794-.0505-.1649-.0779-.2566s-.055-.1863-.0825-.2841l-.0779-.2932c-.0214.0947-.0458.1924-.0733.2932l-.0825.2932c-.0276.0917-.055.1772-.0825.2566-.0244.0764-.0458.1405-.0641.1924l-.6643,1.9426h1.9518" />
<path d="m293.4421,177.1388 .2978.0138 .2841.0321-.11.7697c-.0855-.0153-.1741-.0276-.2657-.0367s-.1726-.0183-.252-.0183c-.1924,0-.3681.0397-.5269.1191s-.2963.1878-.4123.3345c-.1131.1436-.2016.3177-.2657.5223s-.0917.4261-.0917.6735v2.7123h-.8338v-5.0306h.6781l.1008.9209h.0367c.0764-.1313.1573-.2581.2428-.3803s.1863-.2291.2932-.3207 .2321-.1695.3665-.2245c.1344-.058.2871-.087.4582-.087" />
<path d="m296.5255,181.67c.055,0 .1161-.003.1832-.009s.1374-.0138.2016-.0229l.1741-.0321 .1237-.0321v.6323c-.0397.0183-.0902.0367-.1512.055s-.1283.0336-.2016.0458c-.0733.0153-.1497.0259-.2291.032s-.1573.0138-.2337.0138c-.1894,0-.365-.0244-.5269-.0733s-.3024-.1329-.4215-.252-.2077-.2795-.2749-.4811-.1008-.4612-.1008-.7697v-2.9185h-.7101v-.3711l.7101-.3574 .3574-1.0538h.4811v1.1546h1.2645v.6277h-1.2645v2.9185c0,.2963.0473.5193.142.6689 .0977.1497.2566.2245.4765.2245" />
<path d="m310.2977,180.6116v1.6127h.8797v.6964h-8.4301v-.6964h.8797v-1.6127h6.6708m-5.9378,1.6127h1.2829v-.953h-1.2829v.953m1.9792,0h1.2462v-.953h-1.2462v.953m1.9426,0h1.2829v-.953h-1.2829v.953m-4.4716-7.1106h2.7489v-.4398h.733v.4398h2.7856v1.0996h1.0629v.6231h-1.0629v1.0996h-2.7856v.4032h3.592v.6597h-7.8803v-.6597h3.5553v-.4032h-2.8223v-.6231h2.8223v-.4765h-3.7752v-.6231h3.7752v-.4765h-2.7489v-.6231m3.482.6231v.4765h2.0526v-.4765h-2.0526m0,1.0996v.4765h2.0526v-.4765h-2.0526m-3.4087,2.2725 .5864.3665c-.3421.5131-.6842.9285-1.0263,1.2462l-.5864-.5131c.4154-.3421.7575-.7086 1.0263-1.0996m6.3043,0c.391.3665.6964.7575.9163,1.1729l-.6597.4032c-.2199-.4154-.5131-.8064-.8797-1.1729l.6231-.4032m-2.0892.0367c.2688.3421.4521.6842.5498,1.0263l-.7331.1832c-.0978-.3665-.2688-.7086-.5131-1.0263l.6964-.1833m-1.9792.0367c.2199.3177.3665.6475.4398.9896l-.733.2199c-.0734-.3665-.2077-.7086-.4032-1.0263l.6964-.1833" />
<path d="m313.8531,177.0563v6.0477h-.6598v-8.4301h.6598v1.5028c.3176.3177.5864.6353.8064.953l-.4032.5864c-.1222-.2443-.2566-.4643-.4032-.6597m-1.4661-.5498 .5498.11c-.0488.953-.1588,1.8326-.3299,2.639l-.5864-.2932c.171-.8308.2932-1.6494.3665-2.4557m2.4924-1.2829h2.2358v-.5498h.733v.5498h2.4557v.6231h-2.4557v.5865h2.1625v.6231h-2.1625v.5864h2.7123v.6231h-6.011v-.6231h2.5657v-.5864h-1.8693v-.6231h1.8693v-.5865h-2.2358v-.6231m4.9848,3.6286v3.372c-1e-05,.2932-.0855.5131-.2566.6598s-.4154.2199-.733.2199c-.2199,0-.4643-.0244-.7331-.0733l-.1833-.6964c.391.0488.6842.0733.8797.0733s.2932-.1222.2932-.3665v-.2566h-3.1888v1.3195h-.733v-4.2517h4.6549m-3.9219,1.1729h3.1888v-.5865h-3.1888v.5865m0,1.1729h3.1888v-.5864h-3.1888v.5864" />
<path d="m325.3254,174.8205v3.2254h-2.8589v5.0581h-.6597v-8.2835h3.5187m-2.8589,1.3195h2.1259v-.6597h-2.1259v.6597m0,1.2462h2.1259v-.6597h-2.1259v.6597m7.2572-2.4924v7.1473c-2e-05,.3421-.0733.5987-.2199.7697s-.3665.2566-.6597.2566c-.3421,0-.7453-.0244-1.2095-.0733l-.1833-.733c.5131.0488.9285.0733 1.2462.0733 .1955,0 .2932-.1711.2932-.5131v-3.7752h-2.8956v-3.1521h3.6286m-2.8956,1.2462h2.1625v-.6231h-2.1625v.6231m2.1625,1.2095v-.6231h-2.1625v.6231h2.1625m-5.5346,1.0996h4.4716v.6231h-.9163v1.0996h1.2462v.6597h-1.2462v1.9426h-.6964v-1.9426h-1.3561c-.1466.9285-.6353,1.6005-1.4661,2.0159l-.4398-.5865c.6353-.2932 1.0263-.7697 1.1729-1.4295h-1.1362v-.6597h1.2095v-1.0996h-.843v-.6231m2.8589,1.7227v-1.0996h-1.3195v1.0996h1.3195" />
<path d="m339.2534,174.8572v.6597h-2.1992l-.3665.9163h2.1259v3.4454h-1.6494v2.2725c-1e-05,.3665-.0611.6231-.1833.7697s-.3543.2199-.6964.2199c-.2688,0-.5376-.0244-.8064-.0733l-.1466-.733c.2932.0488.5864.0733.8797.0733 .0977,0 .1649-.0244.2016-.0733s.055-.1711.055-.3665v-2.0892h-1.796v-3.4454h1.2462l.3665-.9163h-2.2358v3.3721c0,1.4661-.391,2.8711-1.1729,4.2151l-.6231-.4765c.7086-1.0996 1.0629-2.3458 1.0629-3.7386v-4.0318h5.9377m-3.8852,2.9689h2.749v-.733h-2.749v.733m0,1.3928h2.749v-.7697h-2.749v.7697m-.0367,1.0996 .6231.1833c-.391.8797-.9041,1.5761-1.5394,2.0892l-.5498-.4398c.6842-.5864 1.1729-1.1973 1.4661-1.8326m2.8223.0367c.5376.562.9774,1.1485 1.3195,1.7593l-.6597.4032c-.3177-.6109-.7453-1.1973-1.2829-1.7593l.6231-.4032m-6.5608-5.5346c.4398.3421.8308.6964 1.1729,1.0629l-.5498.5498c-.3421-.4398-.733-.843-1.1729-1.2095l.5498-.4032m-.2932,2.1992c.4643.2932.8919.6353 1.2829,1.0263l-.5131.5864c-.391-.4398-.8064-.8186-1.2462-1.1362l.4765-.4765m.733,2.4557 .5865.4032c-.2688,1.124-.6598,2.2114-1.1729,3.2621l-.6231-.4765c.5131-1.0018.9163-2.0648 1.2095-3.1888" />
<path d="m345.8509,174.7106c.9041,1.4172 1.8693,2.4924 2.8956,3.2254l-.4765.8064c-1.0263-.7819-2.0159-1.9304-2.9689-3.4454l.5498-.5864m-2.6757.0367 .5498.4398c-.8064,1.4417-1.7715,2.6512-2.8956,3.6286l-.5131-.6964c1.0507-.8064 2.0037-1.9304 2.8589-3.372m-1.3928,3.5553h5.4246c-1e-05,2.2725-.0855,3.6286-.2566,4.0685s-.5254.6597-1.0629.6597c-.2932,0-.6353-.0244-1.0263-.0733l-.1466-.7697c.4154.0488.7697.0733 1.0629.0733 .1955,0 .336-.1222.4215-.3665s.1527-1.2095.2016-2.8956h-2.2725c-.0733,1.0263-.3299,1.8449-.7697,2.4557s-1.1851,1.1607-2.2358,1.6494l-.5864-.6231c.9774-.4398 1.6616-.9163 2.0526-1.4295s.6475-1.1973.7697-2.0526h-1.5761v-.6964" />
<path d="m354.0245,174.6372c.1955.2199.3421.4521.4398.6964h3.592v.6231h-8.3568v-.6231h3.8852c-.0733-.1711-.1711-.3299-.2932-.4765l.733-.2199m-3.0788,1.8326h6.1577v1.9426h-6.1577v-1.9426m.733,1.2462h4.6916v-.5864h-4.6916v.5864m-1.0629,1.1362h6.4875v.8064c-.8064.2932-1.7105.5742-2.7123.843v.2566h3.5553v.6964h-3.5553v.9896c-1e-05,.2199-.0855.391-.2566.5131s-.4154.1833-.733.1833-.6353-.0367-.953-.11l-.1099-.6964c.2444.0733.5376.11.8797.11 .2932,0 .4398-.0488.4398-.1466v-.843h-3.8852v-.6964h3.8852v-.6231c.6842-.1955 1.3073-.391 1.8693-.5865h-4.9115v-.6964" />
<path d="m361.6116,182.0777-.953,1.3195h-.5498l.6231-1.3195h-.5498v-1.2095h1.4295v1.2095" />
<path d="m372.7907,174.6372c.1955.2199.3421.4521.4398.6964h3.592v.6231h-8.3568v-.6231h3.8852c-.0733-.1711-.1711-.3299-.2932-.4765l.7331-.2199m-3.0788,1.8326h6.1577v1.9426h-6.1577v-1.9426m.7331,1.2462h4.6916v-.5864h-4.6916v.5864m-1.0629,1.1362h6.4875v.8064c-.8064.2932-1.7105.5742-2.7123.843v.2566h3.5553v.6964h-3.5553v.9896c0,.2199-.0855.391-.2566.5131s-.4154.1833-.7331.1833-.6353-.0367-.953-.11l-.11-.6964c.2444.0733.5376.11.8797.11 .2932,0 .4398-.0488.4398-.1466v-.843h-3.8852v-.6964h3.8852v-.6231c.6842-.1955 1.3073-.391 1.8693-.5865h-4.9115v-.6964" />
<path d="m385.2526,174.6739 .3665.6597c-1.906.2444-4.2395.391-7.0007.4398l-.2199-.6597c2.2725,1e-05 4.5572-.1466 6.8541-.4398m-.6231.9896 .843.2932c-.2932.562-.6231,1.0629-.9896,1.5028h1.5028v1.686h-.733v-.9896h-6.4509v.9896h-.733v-1.686h5.5346c.4398-.6109.7819-1.2095 1.0263-1.796m-2.6757.2199c.2932.3421.5009.7331.6231,1.1729l-.7331.2566c-.1222-.4398-.3177-.843-.5865-1.2095l.6964-.2199m-2.3458.0733c.2932.3421.5009.7208.6231,1.1362l-.733.2566c-.1222-.4398-.3177-.8308-.5864-1.1729l.6964-.2199m-.5131,3.0788h5.4246v.6597c-.4398.7086-.9652,1.2829-1.5761,1.7227 .8308.3665 1.8693.6597 3.1155.8797l-.4032.7697c-1.3195-.2688-2.468-.6597-3.4454-1.1729-1.0752.562-2.3213.9652-3.7386,1.2095l-.4398-.6597c1.3928-.2444 2.529-.5864 3.4087-1.0263-.7086-.4643-1.2829-1.0263-1.7227-1.686h-.6231v-.6964m1.5028.6964c.391.5131.9163.953 1.5761,1.3195 .5864-.391 1.0507-.8308 1.3928-1.3195h-2.9689" />
<path d="m390.6772,174.6372 .843.1832c-.0733.2688-.2077.5742-.4032.9163h3.6286v7.3672h-.733v-.733h-5.2414v.733h-.733v-7.3672h2.2358c.1955-.3421.3299-.7086.4032-1.0996m-1.906,3.0788h5.2414v-1.2828h-5.2414v1.2828m0,1.9792h5.2414v-1.2828h-5.2414v1.2828m0,1.9792h5.2414v-1.2829h-5.2414v1.2829" />
<path d="m404.312,176.3233v6.8174h-.7697v-.7331h-5.4979v.7331h-.7697v-6.8174h3.1155v-1.6494h.8064v1.6494h3.1155m-6.2676,2.7123h2.3458v-2.0159h-2.3458v2.0159m3.1521-2.0159v2.0159h2.3458v-2.0159h-2.3458m-3.1521,4.6916h2.3458v-2.0159h-2.3458v2.0159m3.1521,0h2.3458v-2.0159h-2.3458v2.0159" />
<path d="m408.7103,174.6372 .7331.2566c-.0977.1466-.2077.281-.3299.4032 .8308.3665 1.6005.7819 2.3091,1.2462l-.4765.5864c-.7331-.5131-1.4906-.9652-2.2725-1.3562-.6597.6598-1.4539,1.2218-2.3824,1.686l-.3665-.6598c1.2951-.6842 2.2236-1.405 2.7856-2.1625m-1.2462,5.4246c-1e-05,1.124-.3054,2.1014-.9163,2.9322l-.6231-.3665c.3421-.5376.5742-1.008.6964-1.4111s.1832-.9102.1832-1.5211v-2.3458h1.7593c-.0977-.1955-.1955-.3665-.2932-.5131l.6597-.3299c.1711.2688.3177.5498.4398.843h1.4661v2.7123h-3.3721m2.7123-2.1259h-2.7123v.5131h2.7123v-.5131m-2.7123,1.0263v.5131h2.7123v-.5131h-2.7123m3.592,1.6494v2.4924h-.6598v-.4398h-2.0526v.4398h-.6598v-2.4924h3.3721m-2.7123,1.4295h2.0526v-.843h-2.0526v.843m5.0214-7.3305h.733v7.4405c0,.3665-.0672.617-.2016.7514s-.3604.2016-.6781.2016c-.4398,0-.8552-.0488-1.2462-.1466l-.1466-.733c.4398.1222.8674.1833 1.2828.1833 .171,0 .2566-.1466.2566-.4398v-7.2572m-1.6127.953h.7331v5.3146h-.7331v-5.3146" />
<path d="m417.1771,174.6739 .733.2199c-.1955.562-.4154,1.124-.6597,1.686v6.5242h-.7331v-5.1314c-.2932.4643-.5987.8919-.9163,1.2829l-.3665-.7331c.9041-1.2217 1.5516-2.5046 1.9426-3.8485m1.9426,0 .7697.1833c-.0977.391-.2199.7575-.3665,1.0996h4.2517v.6964h-3.2254v1.4295h2.639v.6597h-2.639v1.4295h2.7489v.6964h-2.7489v2.2358h-.733v-6.4509h-.5864c-.3177.7575-.7453,1.4417-1.2829,2.0526l-.5131-.5864c.733-.9285 1.2951-2.077 1.686-3.4454" />
<path d="m424.471,182.0777c0-.3421.1222-.6353.3665-.8797s.5498-.3665.9163-.3665c.3421,0 .6353.1222.8797.3665s.3665.5376.3665.8797-.1222.6353-.3665.8797-.5376.3665-.8797.3665c-.3665,0-.672-.1222-.9163-.3665s-.3665-.5376-.3665-.8797m.5864,0c0,.1955.0673.3604.2016.4948s.2993.2016.4948.2016c.1711,0 .3238-.0673.4582-.2016s.2016-.2993.2016-.4948-.0673-.3543-.2016-.4765-.2871-.1833-.4582-.1833c-.1955,0-.3604.0611-.4948.1833s-.2016.281-.2016.4765" />
<animate attributeName="opacity" dur="1s" to="1" begin="23s" fill="freeze" />
</g>


</svg>
